<svg fill="#FFFFFF" xmlns="http://www.w3.org/2000/svg"  viewBox="0 0 100 100" width="500px" height="500px"><path d="M 29.429688 17 C 22.598243 17 17 22.598243 17 29.429688 L 17 70.570312 C 17 77.401758 22.598243 83 29.429688 83 L 70.570312 83 C 77.401758 83 83 77.402797 83 70.572266 L 83 29.429688 C 83 22.598243 77.402797 17 70.572266 17 L 29.429688 17 z M 29.429688 19 L 70.572266 19 C 76.311734 19 81 23.689132 81 29.429688 L 81 70.572266 C 81 76.311734 76.310868 81 70.570312 81 L 29.429688 81 C 23.689132 81 19 76.310868 19 70.570312 L 19 29.429688 C 19 23.689132 23.689132 19 29.429688 19 z M 29.429688 22 C 25.337467 22 22 25.338483 22 29.429688 L 22 70.570312 C 22 74.662533 25.338483 78 29.429688 78 L 70.570312 78 C 74.662533 78 78 74.661518 78 70.570312 L 78 66.5 A 0.50005 0.50005 0 1 0 77 66.5 L 77 70.570312 C 77 74.119108 74.120092 77 70.570312 77 L 29.429688 77 C 25.880892 77 23 74.120092 23 70.570312 L 23 29.429688 C 23 25.880892 25.879908 23 29.429688 23 L 33.5 23 A 0.50005 0.50005 0 1 0 33.5 22 L 29.429688 22 z M 36.5 22 A 0.50005 0.50005 0 1 0 36.5 23 L 42.5 23 A 0.50005 0.50005 0 1 0 42.5 22 L 36.5 22 z M 45.5 22 A 0.50005 0.50005 0 1 0 45.5 23 L 48.5 23 A 0.50005 0.50005 0 1 0 48.5 22 L 45.5 22 z M 51.5 22 A 0.50005 0.50005 0 1 0 51.5 23 L 70.570312 23 C 74.119108 23 77 25.879908 77 29.429688 L 77 48.5 A 0.50005 0.50005 0 1 0 78 48.5 L 78 29.429688 C 78 25.337467 74.661518 22 70.570312 22 L 51.5 22 z M 52.960938 27.587891 A 1.0001 1.0001 0 0 0 52.050781 28.914062 C 52.69801 30.875031 52.503785 32.1953 51.90625 33.363281 C 51.308715 34.531263 50.216757 35.556015 48.949219 36.558594 C 47.68168 37.561173 46.25821 38.528643 45.091797 39.720703 C 43.925383 40.912764 43 42.419807 43 44.300781 C 43 49.141498 47.408203 51.455078 47.408203 51.455078 A 1.0003547 1.0003547 0 1 0 48.341797 49.685547 C 48.341797 49.685547 45 47.920064 45 44.300781 C 45 43.050756 45.554617 42.107268 46.521484 41.119141 C 47.488352 40.131014 48.850367 39.186124 50.189453 38.126953 C 51.52854 37.067782 52.865004 35.883096 53.6875 34.275391 C 54.509996 32.667685 54.72849 30.648141 53.949219 28.287109 A 1.0001 1.0001 0 0 0 52.960938 27.587891 z M 56.988281 36.041016 A 1.0001 1.0001 0 0 0 56.720703 36.082031 C 55.149512 36.521494 53.3182 37.457688 51.792969 38.769531 C 50.267737 40.08137 49 41.820195 49 43.890625 C 49 45.559921 49.853705 46.662361 50.505859 47.345703 C 50.831937 47.687374 51.098919 47.955364 51.25 48.173828 C 51.401081 48.392292 51.457031 48.524688 51.457031 48.78125 C 51.457031 50.24795 50.689453 50.660156 50.689453 50.660156 A 1.0008108 1.0008108 0 1 0 51.810547 52.318359 C 51.810547 52.318359 53.457031 51.09855 53.457031 48.78125 C 53.457031 48.091812 53.206091 47.484802 52.896484 47.037109 C 52.586878 46.589417 52.239344 46.266798 51.951172 45.964844 C 51.374827 45.360936 51 44.962329 51 43.890625 C 51 42.668055 51.826184 41.377063 53.095703 40.285156 C 54.365222 39.19325 56.027957 38.352351 57.259766 38.007812 A 1.0001 1.0001 0 0 0 56.988281 36.041016 z M 60.289062 50.205078 C 59.417632 50.184914 58.763672 50.367187 58.763672 50.367188 A 1.0001 1.0001 0 1 0 59.257812 52.304688 C 59.257812 52.304688 60.101492 52.11911 60.816406 52.265625 C 61.173863 52.338885 61.452385 52.475066 61.648438 52.695312 C 61.84449 52.91556 62.021484 53.26046 62.021484 54 C 62.021484 55.352496 60.977197 56.493299 59.751953 57.333984 C 58.526709 58.174669 57.285156 58.609375 57.285156 58.609375 A 1.0003209 1.0003209 0 1 0 57.939453 60.5 C 57.939453 60.5 59.403057 59.997737 60.882812 58.982422 C 62.362569 57.967107 64.021484 56.331504 64.021484 54 C 64.021484 52.89754 63.698588 51.989862 63.142578 51.365234 C 62.586568 50.740606 61.86209 50.438885 61.216797 50.306641 C 60.89415 50.240519 60.579539 50.211799 60.289062 50.205078 z M 42.570312 50.486328 A 1.0001 1.0001 0 0 0 42.400391 50.503906 C 42.400391 50.503906 41.199219 50.714618 39.960938 51.142578 C 39.341796 51.356558 38.707524 51.618229 38.152344 51.996094 C 37.597163 52.373957 37 52.957141 37 53.837891 C 37 54.282312 37.254119 54.654043 37.484375 54.857422 C 37.714631 55.060801 37.945151 55.171123 38.191406 55.269531 C 38.660401 55.456951 39.217704 55.573148 39.863281 55.671875 C 39.849751 55.685955 39.819891 55.698741 39.806641 55.712891 C 39.325716 56.225981 38.972677 56.877669 39.091797 57.599609 C 39.210917 58.32155 39.748627 58.799458 40.292969 59.091797 C 40.732394 59.32779 41.276486 59.455412 41.839844 59.580078 C 41.415701 60.035083 41.133915 60.522486 41.03125 61.101562 C 40.930184 61.671625 41.130691 62.317603 41.507812 62.732422 C 41.884937 63.147241 42.365378 63.389345 42.910156 63.568359 C 45.089269 64.284415 48.704668 64.107511 53.587891 63.078125 A 1.0001 1.0001 0 1 0 53.175781 61.121094 C 48.467003 62.113707 44.894544 62.114663 43.535156 61.667969 C 43.226683 61.566605 43.092336 61.459581 43.039062 61.412109 C 43.066342 61.336029 43.436045 60.70457 44.564453 59.953125 A 1.0001 1.0001 0 0 0 44.75 59.796875 C 47.542531 59.926807 50.846757 59.741415 54.257812 58.970703 A 1.0001 1.0001 0 1 0 53.818359 57.019531 C 49.606133 57.97126 45.007875 58.175551 42.568359 57.730469 C 41.95848 57.619198 41.486978 57.461688 41.238281 57.328125 C 41.165843 57.289222 41.158136 57.279067 41.128906 57.257812 C 41.155001 57.216928 41.173298 57.17858 41.265625 57.080078 C 41.517848 56.810985 42.038143 56.41217 42.837891 55.962891 A 1.0001 1.0001 0 0 0 43.001953 55.849609 C 43.742694 55.877979 44.313292 55.969912 45.132812 55.960938 C 49.121442 55.917248 53.764671 55.454492 56.824219 54.371094 A 1.0001 1.0001 0 1 0 56.15625 52.486328 C 53.550798 53.408929 48.949997 53.918872 45.109375 53.960938 C 43.189064 53.981968 41.442573 53.890438 40.238281 53.712891 C 39.900229 53.663051 39.742258 53.603576 39.505859 53.544922 C 39.810827 53.369171 40.180031 53.183613 40.615234 53.033203 C 41.664952 52.670413 42.751953 52.472656 42.751953 52.472656 A 1.0001 1.0001 0 0 0 42.570312 50.486328 z M 77.492188 59.992188 A 0.50005 0.50005 0 0 0 77 60.5 L 77 63.5 A 0.50005 0.50005 0 1 0 78 63.5 L 78 60.5 A 0.50005 0.50005 0 0 0 77.492188 59.992188 z M 38.042969 63.199219 A 1.0001 1.0001 0 0 0 37.873047 63.208984 C 37.873047 63.208984 36.837141 63.337121 35.759766 63.664062 C 35.221078 63.827534 34.664717 64.032636 34.162109 64.361328 C 33.659502 64.690021 33.099609 65.249162 33.099609 66.066406 C 33.099609 66.532746 33.319653 66.970189 33.59375 67.267578 C 33.867847 67.564967 34.189791 67.768154 34.550781 67.943359 C 35.272761 68.293769 36.175452 68.531519 37.275391 68.726562 C 39.475269 69.116651 42.454901 69.300781 45.875 69.300781 C 49.896019 69.300781 54.263544 68.952845 57.447266 68.273438 C 59.039127 67.933733 60.320559 67.547915 61.246094 66.917969 C 61.708861 66.602996 62.141307 66.186491 62.285156 65.550781 C 62.429006 64.915072 62.151443 64.247065 61.740234 63.794922 A 1.0003377 1.0003377 0 0 0 60.259766 65.140625 C 60.259766 65.140625 60.261719 65.142578 60.261719 65.142578 C 60.227999 65.176287 60.202644 65.208161 60.121094 65.263672 C 59.656004 65.580226 58.504436 66.001611 57.029297 66.316406 C 54.079019 66.945998 49.777981 67.300781 45.875 67.300781 C 42.528099 67.300781 39.620872 67.111726 37.625 66.757812 C 36.627064 66.580856 35.85427 66.352496 35.425781 66.144531 C 35.325009 66.095621 35.315141 66.075131 35.255859 66.035156 C 35.484502 65.88563 35.903531 65.710529 36.339844 65.578125 C 37.212468 65.313317 38.126953 65.191406 38.126953 65.191406 A 1.0001 1.0001 0 0 0 38.042969 63.199219 z M 63.962891 66.990234 A 1.0001 1.0001 0 0 0 63.261719 67.261719 C 60.64476 69.647476 55.081665 70.49798 50.193359 70.556641 C 45.305054 70.615301 41.148438 70 41.148438 70 A 1.0001 1.0001 0 1 0 40.855469 71.978516 C 40.855469 71.978516 45.148805 72.61748 50.21875 72.556641 C 55.288695 72.495801 61.193334 71.852524 64.609375 68.738281 A 1.0001 1.0001 0 0 0 63.962891 66.990234 z"/></svg>