<?xml version="1.0" encoding="iso-8859-1"?><!-- Generator: Adobe Illustrator 21.0.0, SVG Export Plug-In . SVG Version: 6.00 Build 0)  --><svg fill="#FFFFFF" xmlns="http://www.w3.org/2000/svg" xmlns:xlink="http://www.w3.org/1999/xlink" viewBox="0 0 50 50" width="500px" height="500px"><g><path d="M46.794,22.088L27.912,3.206C27.108,2.402,26.054,2,25,2s-2.108,0.402-2.912,1.206L18.354,6.94l4.624,4.624c1.533-0.902,3.533-0.709,4.85,0.607c1.316,1.316,1.509,3.316,0.607,4.85l4.543,4.543c1.533-0.902,3.533-0.709,4.85,0.607c1.562,1.562,1.562,4.095,0,5.657c-1.562,1.562-4.095,1.562-5.657,0c-1.316-1.316-1.509-3.316-0.607-4.85l-4.543-4.543c-0.324,0.19-0.666,0.33-1.021,0.421v12.285c1.722,0.446,3,1.997,3,3.859c0,2.209-1.791,4-4,4s-4-1.791-4-4c0-1.862,1.278-3.413,3-3.859V18.857c-0.669-0.173-1.305-0.505-1.828-1.028c-1.316-1.316-1.509-3.316-0.607-4.85L16.94,8.354L3.206,22.088c-1.608,1.608-1.608,4.215,0,5.823l18.882,18.882C22.892,47.598,23.946,48,25,48s2.108-0.402,2.912-1.206l18.882-18.882C48.402,26.304,48.402,23.696,46.794,22.088z"/></g></svg>