<?xml version="1.0" encoding="utf-8"?><!-- Generator: Adobe Illustrator 15.0.0, SVG Export Plug-In . SVG Version: 6.00 Build 0)  --><!DOCTYPE svg PUBLIC "-//W3C//DTD SVG 1.1//EN" "http://www.w3.org/Graphics/SVG/1.1/DTD/svg11.dtd"><svg fill="#FFFFFF" xmlns="http://www.w3.org/2000/svg" xmlns:xlink="http://www.w3.org/1999/xlink" viewBox="0 0 50 50" width="500px" height="500px"><path d="M30.718,6.156c-0.192,0-0.387-0.055-0.559-0.171c-0.458-0.309-0.578-0.931-0.27-1.389l2.805-4.156c0.31-0.458,0.93-0.579,1.389-0.27c0.458,0.309,0.578,0.931,0.27,1.389l-2.805,4.156C31.354,6.002,31.039,6.156,30.718,6.156z"/><path d="M19.282,6.156c-0.321,0-0.637-0.154-0.83-0.441l-2.804-4.156c-0.309-0.458-0.188-1.079,0.27-1.388c0.458-0.31,1.08-0.188,1.388,0.27l2.804,4.156c0.309,0.458,0.188,1.079-0.27,1.388C19.669,6.101,19.475,6.156,19.282,6.156z"/><path d="M25,3c-6.724,0-12.492,4.244-13.816,10h27.633C37.492,7.244,31.724,3,25,3z M19.503,11C18.67,11,18,10.33,18,9.498C18,8.67,18.67,8,19.503,8C20.33,8,21,8.67,21,9.498C21,10.33,20.33,11,19.503,11z M30.497,11C29.67,11,29,10.33,29,9.498C29,8.67,29.67,8,30.497,8C31.33,8,32,8.67,32,9.498C32,10.33,31.33,11,30.497,11z"/><path d="M11,15v22c0,1.654,1.346,3,3,3h22c1.654,0,3-1.346,3-3V15H11z"/><path d="M15,42v4c0,2.206,1.794,4,4,4s4-1.794,4-4v-4H15z"/><path d="M27,42v4c0,2.206,1.794,4,4,4s4-1.794,4-4v-4H27z"/><path d="M42,15c-0.353,0-0.686,0.072-1,0.184v19.633C41.314,34.928,41.647,35,42,35c1.657,0,3-1.343,3-3c0-0.432,0-13.569,0-14C45,16.343,43.657,15,42,15z"/><path d="M9,15.184C8.686,15.072,8.353,15,8,15c-1.657,0-3,1.343-3,3c0,0.431,0,13.568,0,14c0,1.657,1.343,3,3,3c0.353,0,0.686-0.072,1-0.184V15.184z"/></svg>